<svg width="1280" height="555" viewBox="0 0 1280 555" fill="none" xmlns="http://www.w3.org/2000/svg">
<rect width="1280" height="555" fill="#1E1E1E"/>
<g clip-path="url(#clip0_0_1)">
<path d="M986.667 1C985.542 27.7904 981.49 53.9853 970.689 78.8756C963.748 94.8725 954 108.853 941.533 120.785C929.026 132.754 914.684 142.42 899.537 150.812C872.863 165.592 844.466 176.538 816.474 188.435C801.089 194.974 786.589 203.315 773.707 214.503C758.096 228.063 747.671 244.416 743.364 264.478C741.222 274.454 741.09 284.669 743.877 294.705C744.09 295.474 743.905 296.354 743.899 297.183C738.89 295.998 722.366 283.82 699.501 259.999C685.93 245.86 677.206 228.829 671.048 210.284C670.666 210.442 670.283 210.6 669.901 210.758C670.267 217.451 671.039 224.153 670.872 230.833C670.738 236.154 669.625 241.48 668.563 246.727C668.311 247.971 666.489 249.791 665.453 249.75C664.257 249.702 662.504 248.095 662.077 246.806C659.544 239.157 656.882 231.505 655.11 223.662C652.678 212.903 651.109 201.951 648.931 191.129C648.352 188.254 646.896 185.554 645.843 182.774C645.193 182.727 644.543 182.68 643.893 182.633C642.271 187.531 640.072 192.321 639.128 197.347C635.531 216.514 632.666 235.822 628.816 254.934C627.502 261.461 624.536 267.788 621.506 273.793C619.181 278.401 614.131 278.036 610.96 274.022C605.715 267.383 605.77 259.527 607.543 252.346C612.301 233.078 618.122 214.073 623.501 194.957C623.802 193.888 623.92 192.767 624.123 191.67C623.73 191.43 623.338 191.19 622.946 190.95C619.527 195.881 615.846 200.652 612.736 205.771C598.426 229.326 584.495 253.114 569.979 276.541C562.166 289.151 552.242 300.027 539.487 307.996C538.272 308.755 537.002 309.427 535.306 310.398C536.639 304.956 537.893 300.074 539.028 295.164C544.101 273.217 539.185 253.214 527.129 234.634C516.434 218.15 501.561 206.05 484.383 197.382C466.345 188.28 447.358 181.071 428.851 172.884C403.151 161.516 377.745 149.537 355.139 132.556C336.932 118.879 322.636 101.787 313.082 81.0668C306.484 66.7599 302.125 51.6639 300.033 36.0111C298.517 24.6701 297.352 13.2821 296.015 1.45749C296.444 1 296.889 1 297.308 1.27658C302.608 12.6233 307.155 24.1586 313.432 34.6604C324.303 52.8515 338.419 68.5462 355.654 80.949C368.946 90.5138 382.354 100.338 396.937 107.575C413.051 115.572 430.316 121.539 447.541 126.913C461.876 131.386 476.833 133.939 491.601 136.919C500.375 138.69 509.291 139.85 518.19 140.887C524.505 141.624 530.898 141.695 534.245 141.889C517.549 137.783 497.944 133.449 478.626 128.083C455.599 121.687 433.602 112.438 412.981 100.333C401.689 93.705 390.424 86.7181 380.329 78.4497C369.158 69.3003 359.254 58.5864 348.982 48.3698C346.001 45.4056 343.531 41.8956 341.043 38.4785C338.664 35.2118 336.566 31.7405 333.736 27.4319C336.069 28.1036 337.303 28.4042 338.501 28.812C353.669 33.9771 369.392 36.0787 384.964 32.7287C407.205 27.9441 429.626 24.3473 452.224 23.2894C476.929 22.1329 501.73 22.3262 526.333 26.8358C547.5 30.7156 567.853 36.4277 586.789 46.9162C606.061 57.5907 621.578 72.0367 632.547 91.1676C635.905 97.0238 638.633 103.241 641.595 109.184C643.31 105.342 644.831 101.421 646.757 97.7106C653.482 84.7605 661.945 73.2272 672.922 63.3743C682.511 54.7671 693.022 47.4865 704.596 42.4185C716.969 37.0004 730.015 32.5562 743.204 29.7072C758.785 26.3416 774.78 24.0143 790.69 23.2713C812.961 22.2311 835.351 22.3042 857.514 25.9855C867.466 27.6386 877.482 28.9367 887.396 30.7863C901.165 33.3554 914.973 35.4723 928.913 32.891C946.411 29.6505 962.341 22.5968 976.106 11.2172C979.54 8.37865 982.06 4.43546 985 1C985.444 1 985.889 1 986.667 1Z" fill="#37B6FF"/>
<path d="M788.469 556C787.551 555.342 787.222 554.276 786.63 554.101C784.778 553.553 782.791 553.477 780.92 552.977C771.124 550.359 769.309 547.179 769.136 538.375C768.719 517.075 769.01 495.762 768.996 474.454C768.991 466.935 771.655 464.543 779.291 462.839C795.023 459.328 810.569 458.656 826.027 463.968C841.896 469.421 850.345 480.832 853.052 497.122C855.147 509.725 854.158 521.77 848.299 533.301C842.3 545.105 832.009 550.846 819.784 554.019C818.594 554.327 817.477 554.916 816.663 555.688C807.646 556 798.292 556 788.469 556ZM796 521.475C796 525.272 796 529.068 796 532.725C810.453 536.749 823.061 530.225 825.694 516.509C826.408 512.795 826.028 508.851 825.983 505.014C825.801 489.262 814.934 480.977 800.702 481.957C797.303 482.192 795.84 483.305 795.917 487.024C796.148 498.173 796 509.33 796 521.475Z" fill="#FFBE58"/>
<path d="M579.469 556C578.544 555.342 578.203 554.274 577.61 554.109C576.205 553.72 574.606 554.008 573.217 553.587C562.886 550.456 559.718 548.098 559.91 535.986C560.236 515.355 560.128 494.714 559.913 474.081C559.857 468.7 561.71 465.113 566.833 463.719C571.178 462.536 575.64 461.35 580.1 461.117C588.082 460.701 596.144 460.471 604.099 461.102C625.401 462.791 641.702 477.073 644.181 499.24C645.395 510.097 644.602 520.292 640.321 530.243C634.51 543.752 624.029 551.305 609.786 554.045C608.914 554.213 608.144 554.919 607.664 555.688C598.646 556 589.292 556 579.469 556ZM615.106 496.514C612.239 484.049 598.189 480.849 588.989 482.195C588.177 482.313 587.097 484.424 587.087 485.617C586.956 500.446 586.945 515.277 587.104 530.105C587.117 531.319 588.407 533.363 589.421 533.587C596.398 535.126 608.792 532.773 613.377 524.27C618.14 515.436 617.686 506.413 615.106 496.514Z" fill="#FFBE58"/>
<path d="M1130.45 556C1129.21 555.334 1128.51 554.228 1127.63 554.071C1121.17 552.919 1117.27 547.723 1119.26 541.579C1127.34 516.692 1135.53 491.836 1144.25 467.168C1145.04 464.929 1149.72 463.72 1152.82 462.704C1161.54 459.837 1170.23 460.272 1178.26 464.909C1180.6 466.256 1183.08 468.748 1183.83 471.218C1191.43 496.424 1198.68 521.735 1206.05 547.011C1206.32 547.922 1206.77 548.778 1207.48 550.473C1203.65 552.16 1199.99 553.777 1196.66 555.696C1194.3 556 1191.6 556 1188.79 555.708C1177.88 552.888 1177.71 543.399 1175.66 535.135C1166.84 535.135 1158.22 535.135 1149.37 535.135C1148.22 539.855 1147.2 544.564 1145.9 549.196C1145.21 551.661 1144.21 554.07 1140.84 554.098C1140.22 554.103 1139.61 555.335 1139 556C1136.3 556 1133.6 556 1130.45 556ZM1162 488.497C1159.3 496.859 1156.61 505.221 1153.85 513.764C1159.91 513.764 1165.34 513.764 1171.01 513.764C1168.61 505.1 1166.31 496.71 1163.91 488.351C1163.8 487.983 1162.71 487.898 1162 488.497Z" fill="#FFBE58"/>
<path d="M307.444 556C306.382 555.336 305.82 554.158 305.138 554.085C296.878 553.192 294.401 546.649 296.307 540.609C304.03 516.139 312.13 491.787 320.393 467.494C320.981 465.764 323.834 464.44 325.909 463.642C334.388 460.383 343.012 460.319 351.714 462.988C356.46 464.443 359.583 467.421 360.959 472.123C368.34 497.365 375.707 522.61 382.901 547.906C383.214 549.007 382.141 551.177 381.078 551.859C378.712 553.375 375.944 554.263 373.67 555.704C371.3 556 368.6 556 365.784 555.707C359.981 553.426 355.895 550.402 354.202 543.873C351.867 534.863 351.336 534.945 341.993 535.022C336.723 535.065 330.21 533.519 326.564 536.034C323.381 538.23 323.033 545.042 322.198 549.945C321.693 552.914 320.315 553.6 317.869 554.075C316.827 554.277 315.951 555.332 315 556C312.629 556 310.259 556 307.444 556ZM335.059 498.699C333.665 503.645 332.272 508.59 330.801 513.815C336.658 513.815 342.083 513.815 347.672 513.815C345.081 504.578 342.532 495.492 339.715 485.451C338.059 490.376 336.776 494.192 335.059 498.699Z" fill="#FFBE58"/>
<path d="M162.469 556C161.382 555.335 160.887 554.414 160.126 554.047C156.103 552.105 151.816 550.638 147.99 548.38C140.871 544.179 140.662 531.994 148.827 526.941C149.991 526.221 152.455 526.778 153.927 527.518C162.111 531.634 170.31 536.009 179.786 532.843C182.507 531.933 184.584 529.094 186.956 527.14C185.054 525.106 183.524 522.243 181.181 521.191C173.539 517.761 165.469 515.289 157.807 511.9C145.598 506.499 141.746 496.488 142.94 483.733C143.71 475.51 151.386 466.21 161.266 463.067C173.512 459.172 185.812 459.115 198.291 462.647C212.503 466.669 213.371 480.789 204.386 487.105C197.69 485.353 191.45 483.148 185.029 482.265C181.386 481.765 177.329 483.087 173.693 484.294C172.23 484.78 170.673 487.084 170.519 488.691C170.414 489.8 172.42 491.687 173.868 492.271C181.486 495.344 189.345 497.836 196.895 501.058C206.944 505.345 213.673 512.658 214.906 523.934C216.155 535.363 209.606 547.143 197.713 551.967C194.629 553.218 191.46 554.258 188.665 555.697C180.312 556 171.625 556 162.469 556Z" fill="#FFBE58"/>
<path d="M674.469 556C673.383 555.335 672.887 554.431 672.128 554.043C667.857 551.862 663.33 550.119 659.257 547.628C653.537 544.13 653.906 535.986 657.022 530.872C659.789 526.331 662.75 525.468 667.325 528.055C675.131 532.469 683.285 535.718 692.3 532.825C694.865 532.001 697.796 529.551 698.739 527.136C699.928 524.091 696.579 522.54 694.018 521.49C685.357 517.941 676.46 514.902 668.015 510.904C653.242 503.909 650.128 482.649 661.535 470.85C667.7 464.474 675.2 462.221 683.656 460.822C693.327 459.221 702.577 460.271 711.641 463.1C724.814 467.212 724.406 480.997 717.446 485.928C716.373 486.687 714.271 486.896 713.045 486.39C705.277 483.186 697.358 480.871 689.005 483.155C686.744 483.773 684.102 485.865 683.209 487.953C681.797 491.251 685.082 492.26 687.564 493.139C693.181 495.129 698.949 496.75 704.432 499.056C720.601 505.855 725.844 512.04 726.868 525.366C727.981 539.868 718.962 550.552 703.273 554.028C702.242 554.256 701.308 554.924 700.665 555.694C692.312 556 683.625 556 674.469 556Z" fill="#FFBE58"/>
<path d="M1 466.454C4.66198 464.841 8.29426 463.575 11.9922 462.545C19.4335 460.472 27.0084 464.334 29.2782 471.782C34.6916 489.546 39.826 507.394 45.1072 525.198C45.33 525.949 45.8953 526.599 46.722 528.018C51.9173 507.673 56.924 487.928 62.0715 468.219C62.416 466.9 63.5865 465.297 64.7827 464.786C70.3763 462.4 76.1783 461.183 82.2456 463.109C87.6604 464.829 90.4867 471.262 88.8389 478.347C83.9541 499.35 76.4561 519.46 67.9638 539.227C67.0096 541.448 65.9905 543.641 65.0021 545.847C62.5435 551.335 58.0725 553.636 52.2986 554.057C51.2812 554.131 50.3151 554.911 49.6627 555.683C47.3 556 44.6 556 41.7821 555.692C40.5174 554.922 39.278 554.61 38.241 553.97C34.8508 551.877 29.99 550.427 28.4745 547.358C23.6296 537.545 19.7033 527.232 16.0426 516.892C11.3575 503.659 7.29013 490.208 2.87079 476.879C2.72145 476.429 1.64456 476.286 1 476C0.999999 472.969 0.999999 469.939 1 466.454Z" fill="#FFBE58"/>
<path d="M1281 550.532C1263.44 556.646 1245.51 554.289 1227.77 552.785C1220.08 552.133 1218.23 547.538 1218.14 540.92C1217.79 515.942 1217.97 490.956 1218.09 465.973C1218.1 464.66 1219.33 462.274 1220.12 462.22C1225.42 461.858 1230.85 461.356 1236.06 462.121C1243.01 463.143 1244.98 466.149 1244.99 473.193C1245.01 491.514 1245 509.835 1245 528.156C1245 529.281 1245 530.406 1245 532C1255.17 532 1264.95 531.86 1274.72 532.121C1276.62 532.172 1278.48 533.782 1280.68 534.336C1281 539.355 1281 544.71 1281 550.532Z" fill="#FFBE58"/>
<path d="M840.892 319.911C835.802 313.668 828.071 312.162 821.267 309.006C819.414 308.146 817.45 307.524 815.774 305.727C822.335 306.879 828.947 307.803 835.449 309.227C854.4 313.377 873.425 317.274 892.2 322.124C912.019 327.243 931.836 332.624 950.212 342.047C952.219 343.076 954.394 344.03 956.005 345.538C963.294 352.362 964.974 357.998 954.368 362.855C945.24 367.036 935.273 369.833 925.391 371.815C910.258 374.85 894.909 376.896 879.591 378.897C870.652 380.066 861.599 380.407 852.589 380.983C835.99 382.044 819.384 382.977 802.785 384.018C793.104 384.624 783.438 385.578 773.749 385.944C759.173 386.494 744.581 386.643 729.997 387.008C718.239 387.303 706.485 387.819 694.726 387.971C662.476 388.389 630.224 388.802 597.972 388.936C584.551 388.991 571.126 388.369 557.704 387.986C548.28 387.718 538.857 387.381 529.438 386.989C514.425 386.364 499.411 385.735 484.404 384.977C473.556 384.428 462.698 383.89 451.88 382.947C435.084 381.484 418.294 379.893 401.548 377.958C386.82 376.256 372.068 374.488 357.495 371.824C348.371 370.156 339.512 366.921 330.637 364.072C328.099 363.258 325.691 361.602 323.623 359.859C320.388 357.13 320.307 351.62 324.36 348.423C329.514 344.357 335.267 340.727 341.292 338.146C361.814 329.353 383.36 323.611 405.029 318.509C424.398 313.949 443.94 310.121 463.422 306.051C465.01 305.719 466.727 306.007 467.034 306.007C459.416 310.074 450.842 314.651 441.995 319.835C438.376 322.22 438.933 324.308 441.572 326.045C443.484 327.304 445.669 328.514 447.878 328.891C457.205 330.479 466.587 331.747 475.95 333.509C477.522 336.013 478.683 338.795 480.769 340.103C483.348 341.721 486.635 342.547 489.719 342.966C505.818 345.157 521.904 347.657 538.081 349.011C559.896 350.836 581.787 352.71 603.651 352.782C642.557 352.909 681.483 352.147 720.371 350.874C741.741 350.174 763.096 348.08 784.368 345.787C793.003 344.856 801.439 341.866 809.884 339.518C812.879 338.686 814.484 336.307 814.214 332.787C816.233 332.425 817.887 332.331 819.477 331.962C826.333 330.366 833.337 329.169 839.958 326.877C844.453 325.32 844.399 323.069 840.892 319.911Z" fill="#5CE0E6"/>
<path d="M813.82 332.929C814.484 336.307 812.879 338.686 809.884 339.518C801.439 341.866 793.003 344.856 784.368 345.787C763.096 348.08 741.741 350.174 720.371 350.874C681.483 352.147 642.557 352.909 603.651 352.782C581.787 352.71 559.896 350.836 538.081 349.011C521.904 347.657 505.818 345.157 489.719 342.966C486.635 342.547 483.348 341.721 480.769 340.103C478.683 338.795 477.522 336.013 476.229 333.302C481.362 329.821 486.217 326.924 491.071 324.027C511.414 317.076 532.394 312.832 554.856 308.604C548.318 312.015 543.096 314.74 537.873 317.465C537.929 318.182 537.984 318.898 538.04 319.615C542.723 320.743 547.366 322.609 552.095 322.86C565.813 323.587 579.564 323.709 593.304 323.98C599.295 324.098 605.291 324.099 611.282 323.98C624.861 323.71 638.439 323.023 652.016 323.07C674.751 323.148 697.487 323.974 720.219 323.847C729.137 323.797 738.054 322.104 746.946 320.967C748.351 320.787 749.624 319.581 750.958 318.85C749.964 317.741 749.163 316.301 747.939 315.585C744.225 313.412 740.346 311.519 736.532 309.517C736.661 309.031 736.79 308.546 736.919 308.06C756.006 312.943 775.093 317.825 794.795 323.095C801.547 326.631 807.683 329.78 813.82 332.929Z" fill="#37B6FF"/>
<path d="M971.697 462.003C977.764 463.496 981.566 466.747 984.146 472.237C991.086 487.006 998.535 501.536 1006.28 517.164C1005.78 513.012 1005.08 509.793 1005.05 506.568C1004.93 493.241 1005.08 479.91 1004.93 466.583C1004.9 463.696 1005.94 462.153 1008.65 462.054C1013.16 461.891 1017.7 461.7 1022.17 462.074C1027.81 462.546 1030.94 466.027 1030.96 471.811C1031.05 497.962 1031 524.114 1031 550.778C1021.2 554.906 1011.33 556.358 1001.61 550.938C999.202 549.595 997.378 546.597 996.079 543.967C988.974 529.589 982.117 515.087 975.168 500.632C974.992 500.264 974.73 499.937 974.5 499.577C974.5 517.22 974.5 534.723 974.5 553.088C968.318 553.088 961.736 553.468 955.225 552.956C950.82 552.609 949.036 548.987 949.027 544.825C948.973 520 948.984 495.175 949.015 470.351C949.021 465.95 952.496 462.79 958.77 462.091C962.89 461.631 967.103 462.002 971.697 462.003Z" fill="#FFBE58"/>
<path d="M463.767 481.731C469.067 475.449 474.104 469.414 479.186 463.417C479.684 462.829 480.4 462.271 481.121 462.051C485.927 460.591 496.206 464.367 498.799 468.467C501.895 473.363 500.783 481.583 496.151 486.298C488.916 493.66 481.552 500.893 474.149 508.274C478.126 512.714 481.976 517.123 485.949 521.42C491.34 527.25 496.84 532.979 502.262 538.78C504.782 541.475 502.944 547.586 498.623 551.049C492.608 555.871 482.178 555.526 476.202 549.536C469.817 543.136 464.055 536.112 458.066 529.321C455.842 526.799 453.745 524.164 451.173 521.08C451.173 531.842 451.173 542.056 451.173 553.289C445.225 553.532 439.561 554.1 433.924 553.898C428.391 553.699 424.102 549.29 424.069 543.686C423.919 517.712 423.976 491.736 424.088 465.761C424.093 464.648 425.242 462.695 426.078 462.567C432.45 461.59 438.891 460.233 445.245 462.748C449.734 464.524 450.951 468.266 450.984 472.6C451.042 480.179 451 487.759 451 495.93C455.501 490.917 459.509 486.453 463.767 481.731Z" fill="#FFBE58"/>
<path d="M929.5 482.805C927.214 483.322 925.313 483.934 923.406 483.954C913.776 484.054 904.144 484 894.258 484C894.258 488.413 894.258 492.476 894.258 497C903.354 497 912.332 497.411 921.248 496.845C926.555 496.507 928.523 498.859 929.721 503.275C932.062 511.912 927.562 517.969 918.615 517.995C910.631 518.018 902.647 518 894.332 518C894.332 522.596 894.332 526.994 894.332 532C904.351 532 914.452 531.933 924.551 532.048C927.031 532.076 930.883 531.86 931.7 533.211C933.507 536.198 934.735 540.173 934.502 543.631C933.925 552.189 931.38 553.998 922.473 554C909.807 554.001 897.14 553.91 884.475 554.027C873.278 554.131 867.542 549.05 867.851 537.409C868.386 517.257 867.995 497.081 868.002 476.915C868.005 467.868 872.867 463.006 881.91 463.002C898.398 462.995 914.886 463 931.59 463C933.477 469.884 937.243 476.683 929.5 482.805Z" fill="#FFBE58"/>
<path d="M255.343 554C247.325 553.124 243.89 550.235 243.956 541.534C244.099 522.575 244 503.614 244 484C238.051 484 232.296 484.001 226.54 484C221.093 483.999 219.466 482.683 219.043 477.102C218.354 468.005 219.025 461.763 232.527 461.939C251.167 462.182 269.821 462.286 288.453 461.822C293.914 461.687 295.319 464.362 295.897 468.43C296.315 471.367 296.368 474.472 295.896 477.392C295.221 481.574 292.482 483.963 288.071 483.991C282.595 484.026 277.119 484 271.204 484C271.204 506.931 271.204 529.646 271.204 553.07C265.805 553.396 260.8 553.698 255.343 554Z" fill="#FFBE58"/>
<path d="M1109.72 484C1104.42 484 1099.59 484 1094.3 484C1094.3 506.814 1094.3 529.534 1094.3 553.284C1088.24 553.533 1082.57 554.126 1076.94 553.897C1070.86 553.65 1067.03 548.838 1067.01 542.216C1066.98 523.064 1067 503.911 1067 484C1062.01 484 1057.09 484 1052.18 484C1044.05 484 1042.1 482.022 1042 473.692C1041.92 466.705 1045.49 462.156 1052.19 462.085C1073.67 461.861 1095.14 462.002 1116.49 462.002C1122.87 474.791 1120.18 483.905 1109.72 484Z" fill="#FFBE58"/>
<path d="M515 491C515 482.505 514.916 474.508 515.083 466.516C515.111 465.191 516.029 462.911 516.884 462.732C523.549 461.333 530.365 460.188 536.923 463.039C540.592 464.633 541.976 468.035 541.981 471.88C542.016 498.684 541.999 525.489 541.999 553.074C536.859 553.389 531.863 553.909 526.864 553.951C518.774 554.02 515.029 550.145 515.011 541.97C514.975 525.147 515 508.323 515 491Z" fill="#FFBE58"/>
<path d="M118.848 462C124.827 463.053 127.958 466.048 127.969 470.87C128.032 497.998 128 525.127 128 553.298C122.235 553.534 116.521 554.398 110.952 553.832C104.419 553.169 101.24 550.27 101.13 542.231C100.781 516.762 100.959 491.286 101.125 465.814C101.133 464.555 102.866 462.318 103.94 462.226C108.74 461.815 113.592 462.018 118.848 462Z" fill="#FFBE58"/>
<path d="M490.911 323.696C486.217 326.924 481.362 329.821 476.229 332.925C466.587 331.747 457.205 330.479 447.878 328.891C445.669 328.514 443.484 327.304 441.572 326.045C438.933 324.308 438.376 322.22 441.91 320.163C450.013 318.117 457.915 316.288 465.847 314.596C479.651 311.651 493.474 308.792 507.643 306.837C503.088 308.9 498.528 310.955 493.979 313.032C492.492 313.711 490.811 314.193 489.618 315.226C488.203 316.452 486.019 318.524 486.332 319.601C486.782 321.152 489.182 322.138 490.911 323.696Z" fill="#3798A5"/>
<path d="M814.214 332.787C807.683 329.78 801.547 326.631 795.141 323.243C797.818 319.009 797.6 317.427 792.977 315.055C787.222 312.102 781.272 309.527 775.616 305.981C783.111 307.506 790.626 308.939 798.096 310.577C812.104 313.65 826.086 316.841 840.485 319.947C844.399 323.069 844.453 325.32 839.958 326.877C833.337 329.169 826.333 330.366 819.477 331.962C817.887 332.331 816.233 332.425 814.214 332.787Z" fill="#3CB588"/>
</g>
<defs>
<clipPath id="clip0_0_1">
<rect width="1280" height="555" fill="white"/>
</clipPath>
</defs>
</svg>
